<svg xmlns="http://www.w3.org/2000/svg" xmlns:svg="http://www.w3.org/2000/svg" id="svg7384" width="16" height="16" version="1.1"><metadata id="metadata90"/><title id="title9167">Gnome Symbolic Icon Theme</title><g id="layer11" transform="translate(-202.0002,-490)"><path id="rect11668-7" d="M 205.1875,490 C 203.98238,490 203,491.01795 203,492.21875 l 0,11.5625 c 0,1.2008 0.98238,2.21875 2.1875,2.21875 l 9.625,0 c 1.20512,0 2.1875,-1.01795 2.1875,-2.21875 l 0,-11.5625 C 217,491.01795 216.01762,490 214.8125,490 l -9.625,0 z m -0.1875,3 10,0 0,11 -10,0 0,-11 z m 1,1 0,4 8.03125,0 0,-4 L 206,494 z m 2.34375,1.4375 a 0.50004997,0.50004997 0 0 1 0.0625,0 0.50004997,0.50004997 0 0 1 0.59375,0.5 l 0,0.0625 2,0 0,-0.0625 a 0.50004997,0.50004997 0 1 1 1,0 L 212,496 c 0,0.54535 -0.45465,1 -1,1 l -2,0 c -0.54535,0 -1,-0.45465 -1,-1 l 0,-0.0625 a 0.50004997,0.50004997 0 0 1 0.34375,-0.5 z m -2.3125,3.5625 0,4 8.03125,0 0,-4 -8.03125,0 z m 2.3125,1.4375 a 0.50004997,0.50004997 0 0 1 0.0625,0 0.50004997,0.50004997 0 0 1 0.59375,0.5 l 0,0.0625 2,0 0,-0.0625 a 0.50004997,0.50004997 0 1 1 1,0 L 212,501 c 0,0.54535 -0.45465,1 -1,1 l -2,0 c -0.54535,0 -1,-0.45465 -1,-1 l 0,-0.0625 a 0.50004997,0.50004997 0 0 1 0.34375,-0.5 z" style="color:#000;fill:#bebebe;fill-opacity:1;fill-rule:evenodd;stroke:none;stroke-width:1;marker:none;visibility:visible;display:inline;overflow:visible;enable-background:accumulate"/></g></svg>