<svg xmlns="http://www.w3.org/2000/svg" xmlns:svg="http://www.w3.org/2000/svg" xmlns:xlink="http://www.w3.org/1999/xlink" id="svg11300" width="192" height="152" version="1.0" viewBox="0 0 192 152" style="display:inline;enable-background:new"><title id="title4162">Adwaita Icon Template</title><defs id="defs3"><linearGradient id="linearGradient1099" x1="32" x2="96" y1="236" y2="236" gradientTransform="translate(604.81684,170.58641)" gradientUnits="userSpaceOnUse" xlink:href="#linearGradient1036"/><linearGradient id="linearGradient1036"><stop id="stop1032" offset="0" style="stop-color:#d5d3cf;stop-opacity:1"/><stop id="stop1034" offset="1" style="stop-color:#f6f5f4;stop-opacity:1"/></linearGradient><radialGradient id="radialGradient1103" cx="-244" cy="-76" r="32" fx="-244" fy="-76" gradientTransform="matrix(0.88333331,0,0,0.88333331,-460.35018,463.11973)" gradientUnits="userSpaceOnUse" xlink:href="#linearGradient1069"/><linearGradient id="linearGradient1069"><stop id="stop1065" offset="0" style="stop-color:#d5d3cf;stop-opacity:1"/><stop id="stop1067-1" offset="1" style="stop-color:#949390;stop-opacity:1"/></linearGradient><linearGradient id="linearGradient1027" x1="64" x2="64" y1="262.5" y2="232" gradientTransform="translate(-470.5864,432.81685)" gradientUnits="userSpaceOnUse" xlink:href="#linearGradient1025"/><linearGradient id="linearGradient1025"><stop id="stop1021" offset="0" style="stop-color:#9a9996;stop-opacity:1"/><stop id="stop1023" offset="1" style="stop-color:#77767b;stop-opacity:1"/></linearGradient><clipPath id="clipPath1609-7" clipPathUnits="userSpaceOnUse"><path id="path1611-5" d="m 252,116 28,-28 v -8 h -36 v 36 z" style="fill:#e74747;stroke:none;stroke-width:.25px;stroke-linecap:butt;stroke-linejoin:miter;stroke-opacity:1"/></clipPath><linearGradient id="linearGradient1697"><stop id="stop1685" offset="0" style="stop-color:#deddda;stop-opacity:1"/><stop style="stop-color:#eeeeec;stop-opacity:1" id="stop1687" offset=".045"/><stop id="stop1689" offset=".091" style="stop-color:#deddda;stop-opacity:1"/><stop style="stop-color:#deddda;stop-opacity:1" id="stop1691" offset=".909"/><stop id="stop1693" offset=".955" style="stop-color:#eeeeec;stop-opacity:1"/><stop id="stop1695" offset="1" style="stop-color:#c0bfbc;stop-opacity:1"/></linearGradient><clipPath id="clipPath1289" clipPathUnits="userSpaceOnUse"><path style="display:inline;opacity:1;vector-effect:none;fill:none;fill-opacity:1;stroke:#000;stroke-width:4;stroke-linecap:round;stroke-linejoin:round;stroke-miterlimit:4;stroke-dasharray:none;stroke-dashoffset:0;stroke-opacity:1;marker:none;marker-start:none;marker-mid:none;marker-end:none;paint-order:normal;enable-background:new" id="path1291" d="m 64,-148 h 64 l 64,-64 64,64 h 192 c 17.728,0 32,14.272 32,32 v 288 c 0,17.728 -14.272,32 -32,32 H 256 l -64,-64 -64,64 H 64 C 46.272,204 32,189.728 32,172 v -288 c 0,-17.728 14.408898,-34.19889 32,-32 z"/></clipPath><linearGradient id="paint3_linear-2-6-5" x2="1" gradientTransform="matrix(0,6,-12,0,-64,209.99687)" gradientUnits="userSpaceOnUse"><stop id="stop91-0-7-4" stop-color="#C01C27"/><stop id="stop93-2-5-7" offset="1" stop-color="#E01B24"/></linearGradient><clipPath id="clipPath1609" clipPathUnits="userSpaceOnUse"><path id="path1611" d="m 252,116 28,-28 v -8 h -36 v 36 z" style="fill:#e74747;stroke:none;stroke-width:.25px;stroke-linecap:butt;stroke-linejoin:miter;stroke-opacity:1"/></clipPath><linearGradient id="linearGradient1049" x1="20" x2="108" y1="238" y2="238" gradientUnits="userSpaceOnUse" xlink:href="#linearGradient1697"/><linearGradient id="linearGradient1245"><stop style="stop-color:#9a9996;stop-opacity:1" id="stop1241" offset="0"/><stop style="stop-color:#c0bfbc;stop-opacity:1" id="stop1243" offset="1"/></linearGradient><linearGradient id="linearGradient25973" x1="50" x2="54" y1="196" y2="196" gradientTransform="matrix(1,0,0,0.74469045,0,49.526429)" gradientUnits="userSpaceOnUse" xlink:href="#linearGradient1108"/><linearGradient id="linearGradient1108"><stop style="stop-color:#9a9996;stop-opacity:1" id="stop1194" offset="0"/><stop id="stop1196" offset=".25" style="stop-color:#deddda;stop-opacity:1"/><stop id="stop1102" offset=".75" style="stop-color:#9a9996;stop-opacity:1"/><stop style="stop-color:#c0bfbc;stop-opacity:1" id="stop1106" offset="1"/></linearGradient><linearGradient id="linearGradient25975" x1="50" x2="54" y1="196" y2="196" gradientTransform="matrix(1,0,0,0.74469045,24,49.526429)" gradientUnits="userSpaceOnUse" xlink:href="#linearGradient1108"/><linearGradient id="linearGradient25977" x1="59" x2="59" y1="192" y2="196" gradientTransform="translate(0.059593)" gradientUnits="userSpaceOnUse" xlink:href="#linearGradient1294"/><linearGradient id="linearGradient1294"><stop id="stop1286" offset="0" style="stop-color:#77767b;stop-opacity:1"/><stop style="stop-color:#deddda;stop-opacity:1" id="stop1288" offset=".25"/><stop style="stop-color:#77767b;stop-opacity:1" id="stop1290" offset=".75"/><stop id="stop1292" offset="1" style="stop-color:#c0bfbc;stop-opacity:1"/></linearGradient><linearGradient id="linearGradient1028" x1="104" x2="456" y1="472" y2="472" gradientTransform="matrix(0.25,0,0,0.25,-6,166)" gradientUnits="userSpaceOnUse" xlink:href="#linearGradient1697"/><linearGradient id="linearGradient1681" x1="136" x2="424" y1="-188" y2="-188" gradientTransform="matrix(0.25,0,0,0.25,-226,231.01538)" gradientUnits="userSpaceOnUse" xlink:href="#linearGradient912-6-4"/><linearGradient id="linearGradient912-6-4"><stop id="stop908-7-5" offset="0" style="stop-color:#c0bfbc;stop-opacity:1"/><stop style="stop-color:#f6f5f4;stop-opacity:1" id="stop916-5-6" offset=".043"/><stop id="stop920-3-5" offset=".095" style="stop-color:#deddda;stop-opacity:1"/><stop style="stop-color:#deddda;stop-opacity:1" id="stop922-5-4" offset=".897"/><stop id="stop918-6-6" offset=".958" style="stop-color:#f6f5f4;stop-opacity:1"/><stop id="stop910-2-0" offset="1" style="stop-color:#c0bfbc;stop-opacity:1"/></linearGradient><linearGradient id="linearGradient1683" x1="120" x2="440" y1="471.964" y2="471.964" gradientTransform="matrix(0.25,0,0,0.25,-226,166.01538)" gradientUnits="userSpaceOnUse" xlink:href="#linearGradient966-0"/><linearGradient id="linearGradient966-0"><stop style="stop-color:#c0bfbc;stop-opacity:1" id="stop954-7" offset="0"/><stop id="stop956-6" offset=".043" style="stop-color:#eeeeec;stop-opacity:1"/><stop style="stop-color:#deddda;stop-opacity:1" id="stop958-7" offset=".095"/><stop id="stop960-3" offset=".897" style="stop-color:#deddda;stop-opacity:1"/><stop style="stop-color:#eeeeec;stop-opacity:1" id="stop962-0" offset=".958"/><stop style="stop-color:#c0bfbc;stop-opacity:1" id="stop964-4" offset="1"/></linearGradient><clipPath id="clipPath937-3-8" clipPathUnits="userSpaceOnUse"><rect id="rect939-8-4" width="288" height="391.787" x="112" y="-156" rx="16" ry="16" style="display:inline;opacity:1;vector-effect:none;fill:#4a86cf;fill-opacity:1;stroke:none;stroke-width:.04519285px;stroke-linecap:butt;stroke-linejoin:miter;stroke-miterlimit:4;stroke-dasharray:none;stroke-dashoffset:0;stroke-opacity:1;marker:none;marker-start:none;marker-mid:none;marker-end:none;paint-order:normal;enable-background:new"/></clipPath><filter id="filter1000-3" width="1.198" height="1.146" x="-.099" y="-.073" style="color-interpolation-filters:sRGB"><feGaussianBlur id="feGaussianBlur1002-2" stdDeviation="11.896"/></filter><linearGradient id="linearGradient1012" x1="96" x2="448" y1="229.938" y2="229.938" gradientTransform="matrix(0.25,0,0,0.25,-12.634772,-31.254404)" gradientUnits="userSpaceOnUse" xlink:href="#linearGradient1075"/><linearGradient id="linearGradient1075"><stop id="stop1062-4" offset="0" style="stop-color:#1d60b5;stop-opacity:1"/><stop style="stop-color:#3584e4;stop-opacity:1" id="stop1064-1" offset=".045"/><stop style="stop-color:#1d60b5;stop-opacity:1" id="stop1066-8" offset=".091"/><stop id="stop1069-7" offset=".909" style="stop-color:#1d60b5;stop-opacity:1"/><stop style="stop-color:#3584e4;stop-opacity:1" id="stop1071-7" offset=".955"/><stop id="stop1073" offset="1" style="stop-color:#1d60b5;stop-opacity:1"/></linearGradient><linearGradient id="linearGradient1004" x1="96" x2="448" y1="229.938" y2="229.938" gradientTransform="matrix(0.25,0,0,0.25,-12.634772,-31.254404)" gradientUnits="userSpaceOnUse" xlink:href="#linearGradient1287"/><linearGradient id="linearGradient1287"><stop style="stop-color:#1d60b5;stop-opacity:1" id="stop1283" offset="0"/><stop style="stop-color:#1d60b5;stop-opacity:1" id="stop1285" offset="1"/></linearGradient><linearGradient id="linearGradient1641" x1="256" x2="256" y1="108" y2="147.203" gradientUnits="userSpaceOnUse" xlink:href="#linearGradient1307"/><linearGradient id="linearGradient1307"><stop id="stop1303" offset="0" style="stop-color:#78bdf0;stop-opacity:1"/><stop id="stop1305" offset="1" style="stop-color:#61a1d2;stop-opacity:0"/></linearGradient><linearGradient id="linearGradient1268" x1="256" x2="256" y1="108" y2="147.203" gradientTransform="matrix(0.25,0,0,-0.25,-8.4263919,-48.754404)" gradientUnits="userSpaceOnUse" xlink:href="#linearGradient1307"/><linearGradient id="linearGradient1281" x1="256" x2="256" y1="108" y2="147.203" gradientUnits="userSpaceOnUse" xlink:href="#linearGradient1307"/><linearGradient id="linearGradient1283" x1="20" x2="108" y1="238" y2="238" gradientUnits="userSpaceOnUse" xlink:href="#linearGradient1697"/><linearGradient id="linearGradient1285" x1="50" x2="54" y1="196" y2="196" gradientTransform="matrix(1,0,0,0.74469045,0,49.526429)" gradientUnits="userSpaceOnUse" xlink:href="#linearGradient1108"/><linearGradient id="linearGradient1288" x1="50" x2="54" y1="196" y2="196" gradientTransform="matrix(1,0,0,0.74469045,24,49.526429)" gradientUnits="userSpaceOnUse" xlink:href="#linearGradient1108"/><linearGradient id="linearGradient1290" x1="59" x2="59" y1="192" y2="196" gradientTransform="translate(0.059593)" gradientUnits="userSpaceOnUse" xlink:href="#linearGradient1294"/><linearGradient id="linearGradient1292" x1="50" x2="54" y1="196" y2="196" gradientTransform="matrix(1,0,0,0.74469045,0,49.526429)" gradientUnits="userSpaceOnUse" xlink:href="#linearGradient1108"/><linearGradient id="linearGradient1295" x1="50" x2="54" y1="196" y2="196" gradientTransform="matrix(1,0,0,0.74469045,24,49.526429)" gradientUnits="userSpaceOnUse" xlink:href="#linearGradient1108"/><linearGradient id="linearGradient1297" x1="59" x2="59" y1="192" y2="196" gradientTransform="translate(0.059593)" gradientUnits="userSpaceOnUse" xlink:href="#linearGradient1294"/><linearGradient id="linearGradient1348" x1="50" x2="74" y1="238" y2="238" gradientTransform="translate(2,-22)" gradientUnits="userSpaceOnUse" xlink:href="#linearGradient1697"/><linearGradient id="linearGradient1350" x1="65" x2="65" y1="204" y2="200" gradientUnits="userSpaceOnUse" xlink:href="#linearGradient1245"/></defs><metadata id="metadata4"/><g id="layer1" transform="translate(8,-156)" style="display:inline"><g id="layer4" style="display:inline"><rect id="hicolor" width="128" height="128" x="0" y="172" style="display:inline;overflow:visible;visibility:visible;fill:#f0f0f0;fill-opacity:0;fill-rule:nonzero;stroke:none;stroke-width:.5;marker:none;enable-background:accumulate"/><rect style="display:inline;overflow:visible;visibility:visible;fill:#f0f0f0;fill-opacity:0;fill-rule:nonzero;stroke:none;stroke-width:.5;marker:none;enable-background:accumulate" id="symbolic" width="16" height="16" x="160" y="172"/></g><g id="layer2" style="display:none"><rect style="display:inline;overflow:visible;visibility:visible;fill:#f0f0f0;fill-opacity:1;fill-rule:nonzero;stroke:none;stroke-width:.5;marker:none;enable-background:accumulate" id="128" width="128" height="128" x="0" y="172"/><rect id="16" width="16" height="16" x="160" y="172" style="display:inline;overflow:visible;visibility:visible;fill:#f0f0f0;fill-opacity:1;fill-rule:nonzero;stroke:none;stroke-width:.5;marker:none;enable-background:accumulate"/><text style="font-style:normal;font-variant:normal;font-weight:700;font-stretch:normal;font-size:4px;line-height:125%;font-family:Cantarell;-inkscape-font-specification:'Cantarell, Bold';text-align:start;writing-mode:lr-tb;text-anchor:start;display:inline;fill:#000;fill-opacity:1;stroke:none;stroke-width:.33264872;enable-background:new" id="text863" x="0" y="167" xml:space="preserve"><tspan style="font-size:4px;stroke-width:.33264872" id="tspan861" x="0" y="167">Hicolor</tspan></text><text id="text867" x="160" y="167" xml:space="preserve" style="font-style:normal;font-variant:normal;font-weight:700;font-stretch:normal;font-size:4px;line-height:125%;font-family:Cantarell;-inkscape-font-specification:'Cantarell, Bold';text-align:start;writing-mode:lr-tb;text-anchor:start;display:inline;fill:#000;fill-opacity:1;stroke:none;stroke-width:.33264872;enable-background:new"><tspan id="tspan865" x="160" y="167" style="font-size:4px;stroke-width:.33264872">Symbolic</tspan></text></g><g id="layer9" style="display:inline"><g style="display:inline;enable-background:new" id="g1736" transform="translate(-421.36516,273.75927)"><rect style="display:inline;opacity:1;vector-effect:none;fill:url(#linearGradient1012);fill-opacity:1;stroke:url(#linearGradient1004);stroke-width:.01129822px;stroke-linecap:butt;stroke-linejoin:miter;stroke-miterlimit:4;stroke-dasharray:none;stroke-dashoffset:0;stroke-opacity:1;marker:none;marker-start:none;marker-mid:none;marker-end:none;paint-order:normal;enable-background:new" id="rect17200-6" width="88" height="103.985" x="11.365" y="-85.754" rx="8" ry="8"/><rect style="display:inline;opacity:1;vector-effect:none;fill:#3584e4;fill-opacity:1;stroke:none;stroke-width:.01129822px;stroke-linecap:butt;stroke-linejoin:miter;stroke-miterlimit:4;stroke-dasharray:none;stroke-dashoffset:0;stroke-opacity:1;marker:none;marker-start:none;marker-mid:none;marker-end:none;paint-order:normal;enable-background:new" id="rect17200" width="88" height="102" x="11.365" y="-93.754" rx="8" ry="8"/><g style="display:inline;fill:#1d60b5;fill-opacity:1;enable-background:new" id="use1030-7" transform="matrix(0.25,0,0,0.25,-8.4264019,19.245596)"><path style="display:inline;opacity:1;vector-effect:none;fill:url(#linearGradient1281);fill-opacity:1;stroke:none;stroke-width:16;stroke-linecap:round;stroke-linejoin:miter;stroke-miterlimit:4;stroke-dasharray:none;stroke-dashoffset:0;stroke-opacity:1;marker:none;marker-start:none;marker-mid:none;marker-end:none;paint-order:normal;enable-background:new" id="path1241" d="m 224,108 h 64 c 4.432,0 8,3.568 8,8 v 24 c 0,4.432 -3.568,8 -8,8 h -64 c -4.432,0 -8,-3.568 -8,-8 v -24 c 0,-4.432 3.568,-8 8,-8 z" transform="scale(1,-1)"/><path style="display:inline;opacity:1;vector-effect:none;fill:#1d60b5;fill-opacity:1;stroke:none;stroke-width:.04519285px;stroke-linecap:butt;stroke-linejoin:miter;stroke-miterlimit:4;stroke-dasharray:none;stroke-dashoffset:0;stroke-opacity:1;marker:none;marker-start:none;marker-mid:none;marker-end:none;paint-order:normal;enable-background:new" id="path1243" d="m 224,-148 c -4.432,0 -8,3.568 -8,8 v 8 c 0,-4.432 3.568,-8 8,-8 h 64 c 4.432,0 8,3.568 8,8 v -8 c 0,-4.432 -3.568,-8 -8,-8 z"/></g><g style="display:inline;fill:#1d60b5;fill-opacity:1;enable-background:new" id="use1030" transform="matrix(0.25,0,0,0.25,-8.4264019,-14.754404)"><path style="display:inline;opacity:1;vector-effect:none;fill:url(#linearGradient1641);fill-opacity:1;stroke:none;stroke-width:16;stroke-linecap:round;stroke-linejoin:miter;stroke-miterlimit:4;stroke-dasharray:none;stroke-dashoffset:0;stroke-opacity:1;marker:none;marker-start:none;marker-mid:none;marker-end:none;paint-order:normal;enable-background:new" id="path1233" d="m 224,108 h 64 c 4.432,0 8,3.568 8,8 v 24 c 0,4.432 -3.568,8 -8,8 h -64 c -4.432,0 -8,-3.568 -8,-8 v -24 c 0,-4.432 3.568,-8 8,-8 z" transform="scale(1,-1)"/><path style="display:inline;opacity:1;vector-effect:none;fill:#1d60b5;fill-opacity:1;stroke:none;stroke-width:.04519285px;stroke-linecap:butt;stroke-linejoin:miter;stroke-miterlimit:4;stroke-dasharray:none;stroke-dashoffset:0;stroke-opacity:1;marker:none;marker-start:none;marker-mid:none;marker-end:none;paint-order:normal;enable-background:new" id="path1235" d="m 224,-148 c -4.432,0 -8,3.568 -8,8 v 8 c 0,-4.432 3.568,-8 8,-8 h 64 c 4.432,0 8,3.568 8,8 v -8 c 0,-4.432 -3.568,-8 -8,-8 z"/></g><path style="display:inline;opacity:1;vector-effect:none;fill:url(#linearGradient1268);fill-opacity:1;stroke:none;stroke-width:4;stroke-linecap:round;stroke-linejoin:miter;stroke-miterlimit:4;stroke-dasharray:none;stroke-dashoffset:0;stroke-opacity:1;marker:none;marker-start:none;marker-mid:none;marker-end:none;paint-order:normal;enable-background:new" id="rect17210" d="m 47.573608,-75.754404 h 16 c 1.108,0 2,-0.892 2,-2 v -6 c 0,-1.108 -0.892,-2 -2,-2 h -16 c -1.108,0 -2,0.892 -2,2 v 6 c 0,1.108 0.892,2 2,2 z"/><path style="display:inline;opacity:1;vector-effect:none;fill:#1d60b5;fill-opacity:1;stroke:none;stroke-width:.01129821px;stroke-linecap:butt;stroke-linejoin:miter;stroke-miterlimit:4;stroke-dasharray:none;stroke-dashoffset:0;stroke-opacity:1;marker:none;marker-start:none;marker-mid:none;marker-end:none;paint-order:normal;enable-background:new" id="path17212" d="m 47.573608,-85.754404 c -1.108,0 -2,0.892 -2,2 v 2 c 0,-1.108 0.892,-2 2,-2 h 16 c 1.108,0 2,0.892 2,2 v -2 c 0,-1.108 -0.892,-2 -2,-2 z"/><rect style="display:inline;opacity:1;vector-effect:none;fill:#1d60b5;fill-opacity:1;stroke:none;stroke-width:.01129821px;stroke-linecap:butt;stroke-linejoin:miter;stroke-miterlimit:4;stroke-dasharray:none;stroke-dashoffset:0;stroke-opacity:1;marker:none;marker-start:none;marker-mid:none;marker-end:none;paint-order:normal;enable-background:new" id="rect17202" width="88" height="2" x="11.365" y="-59.754" rx="0" ry="0"/><rect style="display:inline;opacity:1;vector-effect:none;fill:#1d60b5;fill-opacity:1;stroke:none;stroke-width:.01129822px;stroke-linecap:butt;stroke-linejoin:miter;stroke-miterlimit:4;stroke-dasharray:none;stroke-dashoffset:0;stroke-opacity:1;marker:none;marker-start:none;marker-mid:none;marker-end:none;paint-order:normal;enable-background:new" id="rect17214" width="88" height="2" x="11.365" y="-25.754" rx="0" ry="0"/></g><g id="g1679" transform="translate(-90,-0.01538)" style="display:inline;enable-background:new"><rect style="opacity:1;vector-effect:none;fill:#f6f5f4;fill-opacity:1;stroke:none;stroke-width:.01129821px;stroke-linecap:butt;stroke-linejoin:miter;stroke-miterlimit:4;stroke-dasharray:none;stroke-dashoffset:0;stroke-opacity:1;marker:none;marker-start:none;marker-mid:none;marker-end:none;paint-order:normal" id="rect1647" width="80" height="112" x="-196" y="180.015" rx="7.975" ry="8.018"/><rect style="display:inline;opacity:1;vector-effect:none;fill:url(#linearGradient1681);fill-opacity:1;stroke:none;stroke-width:.01129821px;stroke-linecap:butt;stroke-linejoin:miter;stroke-miterlimit:4;stroke-dasharray:none;stroke-dashoffset:0;stroke-opacity:1;marker:none;marker-start:none;marker-mid:none;marker-end:none;paint-order:normal;enable-background:new" id="rect1649" width="72" height="84" x="-192" y="184.015" rx="4" ry="4"/><path style="display:inline;opacity:1;vector-effect:none;fill:url(#linearGradient1683);fill-opacity:1;stroke:none;stroke-width:.01129821px;stroke-linecap:butt;stroke-linejoin:miter;stroke-miterlimit:4;stroke-dasharray:none;stroke-dashoffset:0;stroke-opacity:1;marker:none;marker-start:none;marker-mid:none;marker-end:none;paint-order:normal;enable-background:new" id="path1651" d="m -196,280.03213 v 3.96518 c 0,4.44193 3.5569,8.01807 7.9751,8.01807 h 64.0498 c 4.4182,0 7.9751,-3.57614 7.9751,-8.01807 v -3.96518 c 0,4.44192 -3.5569,8.01806 -7.9751,8.01806 h -64.0498 c -4.4182,0 -7.9751,-3.57614 -7.9751,-8.01806 z"/><rect style="display:inline;opacity:1;vector-effect:none;fill:#3584e4;fill-opacity:1;stroke:none;stroke-width:.01129821px;stroke-linecap:butt;stroke-linejoin:miter;stroke-miterlimit:4;stroke-dasharray:none;stroke-dashoffset:0;stroke-opacity:1;marker:none;marker-start:none;marker-mid:none;marker-end:none;paint-order:normal;enable-background:new" id="rect1653" width="72" height="97.947" x="-192" y="186.015" rx="4" ry="4"/><rect style="display:inline;opacity:1;vector-effect:none;fill:#1c71d8;fill-opacity:1;stroke:none;stroke-width:.01129821px;stroke-linecap:butt;stroke-linejoin:miter;stroke-miterlimit:4;stroke-dasharray:none;stroke-dashoffset:0;stroke-opacity:1;marker:none;marker-start:none;marker-mid:none;marker-end:none;paint-order:normal;enable-background:new" id="rect1655" width="72" height="2" x="-192" y="218.015" rx="0" ry="0"/><g id="g1665" transform="matrix(0.25,0,0,-0.25,-226,281.01538)"><rect id="rect1661" width="96" height="40" x="232" y="44" rx="8" ry="8" style="display:inline;opacity:1;vector-effect:none;fill:#98c1f1;fill-opacity:1;stroke:none;stroke-width:16;stroke-linecap:round;stroke-linejoin:miter;stroke-miterlimit:4;stroke-dasharray:none;stroke-dashoffset:0;stroke-opacity:1;marker:none;marker-start:none;marker-mid:none;marker-end:none;paint-order:normal;enable-background:new"/><path id="path1663" d="m 240,83.999992 c -4.432,0 -8,-3.568 -8,-8 v -8 c 0,4.432 3.568,8 8,8 h 80 c 4.432,0 8,-3.568 8,-8 v 8 c 0,4.432 -3.568,8 -8,8 z" style="display:inline;opacity:1;vector-effect:none;fill:#1a5fb4;fill-opacity:1;stroke:none;stroke-width:.04519285px;stroke-linecap:butt;stroke-linejoin:miter;stroke-miterlimit:4;stroke-dasharray:none;stroke-dashoffset:0;stroke-opacity:1;marker:none;marker-start:none;marker-mid:none;marker-end:none;paint-order:normal;enable-background:new"/></g><g id="g1671" transform="matrix(0.25,0,0,-0.25,-226,153.01538)"><rect id="rect1667" width="96" height="40.263" x="232" y="-196.263" rx="8" ry="8" style="display:inline;opacity:1;vector-effect:none;fill:#98c1f1;fill-opacity:1;stroke:none;stroke-width:16;stroke-linecap:round;stroke-linejoin:miter;stroke-miterlimit:4;stroke-dasharray:none;stroke-dashoffset:0;stroke-opacity:1;marker:none;marker-start:none;marker-mid:none;marker-end:none;paint-order:normal;enable-background:new"/><path id="path1669" d="m 240,-155.99996 c -4.432,0 -8,-3.568 -8,-8 v -8 c 0,4.432 3.568,8 8,8 h 80 c 4.432,0 8,-3.568 8,-8 v 8 c 0,4.432 -3.568,8 -8,8 z" style="display:inline;opacity:1;vector-effect:none;fill:#1a5fb4;fill-opacity:1;stroke:none;stroke-width:.04519285px;stroke-linecap:butt;stroke-linejoin:miter;stroke-miterlimit:4;stroke-dasharray:none;stroke-dashoffset:0;stroke-opacity:1;marker:none;marker-start:none;marker-mid:none;marker-end:none;paint-order:normal;enable-background:new"/></g><rect style="display:inline;opacity:1;vector-effect:none;fill:#1c71d8;fill-opacity:1;stroke:none;stroke-width:.01129821px;stroke-linecap:butt;stroke-linejoin:miter;stroke-miterlimit:4;stroke-dasharray:none;stroke-dashoffset:0;stroke-opacity:1;marker:none;marker-start:none;marker-mid:none;marker-end:none;paint-order:normal;enable-background:new" id="rect1673" width="72" height="2" x="-192" y="252.015" rx="0" ry="0"/><rect style="display:inline;opacity:.74299999;vector-effect:none;fill:none;fill-opacity:1;stroke:#000;stroke-width:1;stroke-linecap:butt;stroke-linejoin:miter;stroke-miterlimit:4;stroke-dasharray:none;stroke-dashoffset:0;stroke-opacity:1;marker:none;marker-start:none;marker-mid:none;marker-end:none;paint-order:normal;filter:url(#filter1000-3);enable-background:new" id="rect1677" width="288" height="391.787" x="112" y="-156" clip-path="url(#clipPath937-3-8)" rx="16" ry="16" transform="matrix(0.25,0,0,0.25,-220,225.01538)"/><g id="g994" transform="matrix(0.25,0,0,-0.25,-226,187.01538)"><rect style="display:inline;opacity:1;vector-effect:none;fill:#98c1f1;fill-opacity:1;stroke:none;stroke-width:16;stroke-linecap:round;stroke-linejoin:miter;stroke-miterlimit:4;stroke-dasharray:none;stroke-dashoffset:0;stroke-opacity:1;marker:none;marker-start:none;marker-mid:none;marker-end:none;paint-order:normal;enable-background:new" id="rect990" width="96" height="40.263" x="232" y="-196.263" rx="8" ry="8"/><path style="display:inline;opacity:1;vector-effect:none;fill:#1a5fb4;fill-opacity:1;stroke:none;stroke-width:.04519285px;stroke-linecap:butt;stroke-linejoin:miter;stroke-miterlimit:4;stroke-dasharray:none;stroke-dashoffset:0;stroke-opacity:1;marker:none;marker-start:none;marker-mid:none;marker-end:none;paint-order:normal;enable-background:new" id="path992" d="m 240,-155.99996 c -4.432,0 -8,-3.568 -8,-8 v -8 c 0,4.432 3.568,8 8,8 h 80 c 4.432,0 8,-3.568 8,-8 v 8 c 0,4.432 -3.568,8 -8,8 z"/></g></g><g style="display:inline;enable-background:new" id="g1025" transform="translate(-200)"><rect style="opacity:1;vector-effect:none;fill:#f6f5f4;fill-opacity:1;stroke:none;stroke-width:.01184966px;stroke-linecap:butt;stroke-linejoin:miter;stroke-miterlimit:4;stroke-dasharray:none;stroke-dashoffset:0;stroke-opacity:1;marker:none;marker-start:none;marker-mid:none;marker-end:none;paint-order:normal" id="rect988" width="88" height="112" x="20" y="180" rx="8.773" ry="8.018"/><rect style="display:inline;opacity:1;vector-effect:none;fill:#c0bfbc;fill-opacity:1;stroke:none;stroke-width:.01129821px;stroke-linecap:butt;stroke-linejoin:miter;stroke-miterlimit:4;stroke-dasharray:none;stroke-dashoffset:0;stroke-opacity:1;marker:none;marker-start:none;marker-mid:none;marker-end:none;paint-order:normal;enable-background:new" id="rect991" width="80" height="84" x="24" y="184" rx="4" ry="4"/><path style="display:inline;opacity:1;vector-effect:none;fill:url(#linearGradient1028);fill-opacity:1;stroke:none;stroke-width:.01129821px;stroke-linecap:butt;stroke-linejoin:miter;stroke-miterlimit:4;stroke-dasharray:none;stroke-dashoffset:0;stroke-opacity:1;marker:none;marker-start:none;marker-mid:none;marker-end:none;paint-order:normal;enable-background:new" id="path993" d="m 20,280 v 3.98193 C 20,288.42386 23.5569,292 27.9751,292 h 72.0498 C 104.4431,292 108,288.42386 108,283.98193 V 280 c 0,4.44192 -3.5818,8 -8,8 H 28 c -4.4182,0 -8,-3.55808 -8,-8 z"/><rect style="display:inline;opacity:1;vector-effect:none;fill:#3584e4;fill-opacity:1;stroke:none;stroke-width:.0119126px;stroke-linecap:butt;stroke-linejoin:miter;stroke-miterlimit:4;stroke-dasharray:none;stroke-dashoffset:0;stroke-opacity:1;marker:none;marker-start:none;marker-mid:none;marker-end:none;paint-order:normal;enable-background:new" id="rect995" width="80" height="98" x="24" y="186" rx="4" ry="4.002"/><rect style="display:inline;opacity:1;vector-effect:none;fill:#1c71d8;fill-opacity:1;stroke:none;stroke-width:.01190936px;stroke-linecap:butt;stroke-linejoin:miter;stroke-miterlimit:4;stroke-dasharray:none;stroke-dashoffset:0;stroke-opacity:1;marker:none;marker-start:none;marker-mid:none;marker-end:none;paint-order:normal;enable-background:new" id="rect997" width="80" height="2" x="24" y="216.125" rx="0" ry="0"/><rect style="display:inline;opacity:1;vector-effect:none;fill:#1c71d8;fill-opacity:1;stroke:none;stroke-width:.01190936px;stroke-linecap:butt;stroke-linejoin:miter;stroke-miterlimit:4;stroke-dasharray:none;stroke-dashoffset:0;stroke-opacity:1;marker:none;marker-start:none;marker-mid:none;marker-end:none;paint-order:normal;enable-background:new" id="rect999" width="80" height="2" x="24" y="248" rx="0" ry="0"/><g style="display:inline;enable-background:new" id="g1003" transform="matrix(0.25,0,0,-0.25,-6,276.99999)"><path id="path1001" d="m 240,91.999954 c -4.432,0 -8,-3.568 -8,-8 V 67.99996 c 0,4.432 3.568,8 8,8 h 80 c 4.432,0 8,-3.568 8,-8 v 15.999994 c 0,4.432 -3.568,8 -8,8 z" style="display:inline;opacity:1;vector-effect:none;fill:#1a5fb4;fill-opacity:1;stroke:none;stroke-width:.04519285px;stroke-linecap:butt;stroke-linejoin:miter;stroke-miterlimit:4;stroke-dasharray:none;stroke-dashoffset:0;stroke-opacity:1;marker:none;marker-start:none;marker-mid:none;marker-end:none;paint-order:normal;enable-background:new"/></g><g style="display:inline;enable-background:new" id="g1007" transform="matrix(0.25,0,0,-0.25,-6,153.00001)"><path id="path1005" d="m 240,-147.99996 c -4.432,0 -8,-3.568 -8,-8 v -16 c 0,4.432 3.568,8 8,8 h 80 c 4.432,0 8,-3.568 8,-8 v 16 c 0,4.432 -3.568,8 -8,8 z" style="display:inline;opacity:1;vector-effect:none;fill:#1a5fb4;fill-opacity:1;stroke:none;stroke-width:.04519285px;stroke-linecap:butt;stroke-linejoin:miter;stroke-miterlimit:4;stroke-dasharray:none;stroke-dashoffset:0;stroke-opacity:1;marker:none;marker-start:none;marker-mid:none;marker-end:none;paint-order:normal;enable-background:new"/></g><g style="display:inline;enable-background:new" id="g1011" transform="matrix(0.25,0,0,-0.25,-6,185.00001)"><path style="display:inline;opacity:1;vector-effect:none;fill:#1a5fb4;fill-opacity:1;stroke:none;stroke-width:.04519285px;stroke-linecap:butt;stroke-linejoin:miter;stroke-miterlimit:4;stroke-dasharray:none;stroke-dashoffset:0;stroke-opacity:1;marker:none;marker-start:none;marker-mid:none;marker-end:none;paint-order:normal;enable-background:new" id="path1009" d="m 240,-147.99996 c -4.432,0 -8,-3.568 -8,-8 v -16 c 0,4.432 3.568,8 8,8 h 80 c 4.432,0 8,-3.568 8,-8 v 16 c 0,4.432 -3.568,8 -8,8 z"/></g></g><g style="display:inline;enable-background:new" id="g25969" transform="translate(-200,-160)"><rect id="rect25919" width="88" height="108" x="20" y="184" rx="8.773" ry="8.018" style="opacity:1;vector-effect:none;fill:url(#linearGradient1283);fill-opacity:1;stroke:none;stroke-width:.01184966px;stroke-linecap:butt;stroke-linejoin:miter;stroke-miterlimit:4;stroke-dasharray:none;stroke-dashoffset:0;stroke-opacity:1;marker:none;marker-start:none;marker-mid:none;marker-end:none;paint-order:normal"/><rect style="opacity:1;vector-effect:none;fill:#f6f5f4;fill-opacity:1;stroke:none;stroke-width:.01184966px;stroke-linecap:butt;stroke-linejoin:miter;stroke-miterlimit:4;stroke-dasharray:none;stroke-dashoffset:0;stroke-opacity:1;marker:none;marker-start:none;marker-mid:none;marker-end:none;paint-order:normal" id="rect25921" width="88" height="108" x="20" y="180" rx="8.773" ry="8.018"/><rect style="display:inline;opacity:1;vector-effect:none;fill:#c0bfbc;fill-opacity:1;stroke:none;stroke-width:.01129821px;stroke-linecap:butt;stroke-linejoin:miter;stroke-miterlimit:4;stroke-dasharray:none;stroke-dashoffset:0;stroke-opacity:1;marker:none;marker-start:none;marker-mid:none;marker-end:none;paint-order:normal;enable-background:new" id="rect25923" width="80" height="84" x="24" y="184" rx="4" ry="4"/><rect style="display:inline;opacity:1;vector-effect:none;fill:#3584e4;fill-opacity:1;stroke:none;stroke-width:.0119126px;stroke-linecap:butt;stroke-linejoin:miter;stroke-miterlimit:4;stroke-dasharray:none;stroke-dashoffset:0;stroke-opacity:1;marker:none;marker-start:none;marker-mid:none;marker-end:none;paint-order:normal;enable-background:new" id="rect25925" width="80" height="98" x="24" y="186" rx="4" ry="4.002"/><rect style="display:inline;opacity:1;vector-effect:none;fill:#1c71d8;fill-opacity:1;stroke:none;stroke-width:.01190936px;stroke-linecap:butt;stroke-linejoin:miter;stroke-miterlimit:4;stroke-dasharray:none;stroke-dashoffset:0;stroke-opacity:1;marker:none;marker-start:none;marker-mid:none;marker-end:none;paint-order:normal;enable-background:new" id="rect25927" width="80" height="2" x="24" y="216.125" rx="0" ry="0"/><rect style="display:inline;opacity:1;vector-effect:none;fill:#1c71d8;fill-opacity:1;stroke:none;stroke-width:.01190936px;stroke-linecap:butt;stroke-linejoin:miter;stroke-miterlimit:4;stroke-dasharray:none;stroke-dashoffset:0;stroke-opacity:1;marker:none;marker-start:none;marker-mid:none;marker-end:none;paint-order:normal;enable-background:new" id="rect25929" width="80" height="2" x="24" y="248" rx="0" ry="0"/><circle style="opacity:1;vector-effect:none;fill:#241f31;fill-opacity:1;stroke:none;stroke-width:.99999994;stroke-linecap:round;stroke-linejoin:round;stroke-miterlimit:4;stroke-dasharray:none;stroke-dashoffset:0;stroke-opacity:1" id="circle25931" cx="52" cy="198" r="3"/><circle id="circle25933" cx="76" cy="198" r="3" style="opacity:1;vector-effect:none;fill:#241f31;fill-opacity:1;stroke:none;stroke-width:.99999994;stroke-linecap:round;stroke-linejoin:round;stroke-miterlimit:4;stroke-dasharray:none;stroke-dashoffset:0;stroke-opacity:1"/><path style="fill:none;fill-opacity:1;stroke:url(#linearGradient1285);stroke-width:4;stroke-linecap:round;stroke-linejoin:miter;stroke-opacity:1" id="path25935" d="m 52,196.97514 v -2.97876"/><path id="path25937" d="m 76,196.97514 v -2.97876" style="fill:none;fill-opacity:1;stroke:url(#linearGradient1288);stroke-width:4;stroke-linecap:round;stroke-linejoin:miter;stroke-opacity:1"/><path style="fill:none;stroke:url(#linearGradient1290);stroke-width:4;stroke-linecap:round;stroke-linejoin:miter;stroke-opacity:1" id="path25939" d="M 52,194 H 76"/><g id="g25953" transform="translate(0,32)"><circle style="opacity:1;vector-effect:none;fill:#241f31;fill-opacity:1;stroke:none;stroke-width:.99999994;stroke-linecap:round;stroke-linejoin:round;stroke-miterlimit:4;stroke-dasharray:none;stroke-dashoffset:0;stroke-opacity:1" id="circle25941" cx="52" cy="198" r="3"/><circle id="circle25943" cx="76" cy="198" r="3" style="opacity:1;vector-effect:none;fill:#241f31;fill-opacity:1;stroke:none;stroke-width:.99999994;stroke-linecap:round;stroke-linejoin:round;stroke-miterlimit:4;stroke-dasharray:none;stroke-dashoffset:0;stroke-opacity:1"/><g id="g25951"><path id="path25945" d="m 52,196.97514 v -2.97876" style="fill:none;fill-opacity:1;stroke:url(#linearGradient1292);stroke-width:4;stroke-linecap:round;stroke-linejoin:miter;stroke-opacity:1"/><path style="fill:none;fill-opacity:1;stroke:url(#linearGradient1295);stroke-width:4;stroke-linecap:round;stroke-linejoin:miter;stroke-opacity:1" id="path25947" d="m 76,196.97514 v -2.97876"/><path id="path25949" d="M 52,194 H 76" style="fill:none;stroke:url(#linearGradient1297);stroke-width:4;stroke-linecap:round;stroke-linejoin:miter;stroke-opacity:1"/></g></g><g id="g25967" transform="translate(0,64)"><circle id="circle25955" cx="52" cy="198" r="3" style="opacity:1;vector-effect:none;fill:#241f31;fill-opacity:1;stroke:none;stroke-width:.99999994;stroke-linecap:round;stroke-linejoin:round;stroke-miterlimit:4;stroke-dasharray:none;stroke-dashoffset:0;stroke-opacity:1"/><circle style="opacity:1;vector-effect:none;fill:#241f31;fill-opacity:1;stroke:none;stroke-width:.99999994;stroke-linecap:round;stroke-linejoin:round;stroke-miterlimit:4;stroke-dasharray:none;stroke-dashoffset:0;stroke-opacity:1" id="circle25957" cx="76" cy="198" r="3"/><g id="g25965"><path style="fill:none;fill-opacity:1;stroke:url(#linearGradient25973);stroke-width:4;stroke-linecap:round;stroke-linejoin:miter;stroke-opacity:1" id="path25959" d="m 52,196.97514 v -2.97876"/><path id="path25961" d="m 76,196.97514 v -2.97876" style="fill:none;fill-opacity:1;stroke:url(#linearGradient25975);stroke-width:4;stroke-linecap:round;stroke-linejoin:miter;stroke-opacity:1"/><path style="fill:none;stroke:url(#linearGradient25977);stroke-width:4;stroke-linecap:round;stroke-linejoin:miter;stroke-opacity:1" id="path25963" d="M 52,194 H 76"/></g></g></g><g style="display:inline;enable-background:new" id="g1207"><rect style="opacity:1;vector-effect:none;fill:url(#linearGradient1049);fill-opacity:1;stroke:none;stroke-width:.01184966px;stroke-linecap:butt;stroke-linejoin:miter;stroke-miterlimit:4;stroke-dasharray:none;stroke-dashoffset:0;stroke-opacity:1;marker:none;marker-start:none;marker-mid:none;marker-end:none;paint-order:normal" id="rect1041" width="88" height="58" x="20" y="234" rx="8" ry="8"/><rect id="rect15435-6" width="88" height="108" x="20" y="180" rx="8" ry="8" style="opacity:1;vector-effect:none;fill:#f6f5f4;fill-opacity:1;stroke:none;stroke-width:.01184966px;stroke-linecap:butt;stroke-linejoin:miter;stroke-miterlimit:4;stroke-dasharray:none;stroke-dashoffset:0;stroke-opacity:1;marker:none;marker-start:none;marker-mid:none;marker-end:none;paint-order:normal"/><rect style="display:inline;opacity:1;vector-effect:none;fill:#1a5fb4;fill-opacity:1;stroke:none;stroke-width:.0119126px;stroke-linecap:butt;stroke-linejoin:miter;stroke-miterlimit:4;stroke-dasharray:none;stroke-dashoffset:0;stroke-opacity:1;marker:none;marker-start:none;marker-mid:none;marker-end:none;paint-order:normal;enable-background:new" id="rect1167" width="80" height="98" x="24" y="186" rx="4" ry="4"/><rect id="rect15441-8" width="80" height="98" x="24" y="184" rx="4" ry="4" style="display:inline;opacity:1;vector-effect:none;fill:#3584e4;fill-opacity:1;stroke:none;stroke-width:.0119126px;stroke-linecap:butt;stroke-linejoin:miter;stroke-miterlimit:4;stroke-dasharray:none;stroke-dashoffset:0;stroke-opacity:1;marker:none;marker-start:none;marker-mid:none;marker-end:none;paint-order:normal;enable-background:new"/><rect id="rect15443-6" width="80" height="2" x="24" y="216" rx="0" ry="0" style="display:inline;opacity:1;vector-effect:none;fill:#1c71d8;fill-opacity:1;stroke:none;stroke-width:.01190936px;stroke-linecap:butt;stroke-linejoin:miter;stroke-miterlimit:4;stroke-dasharray:none;stroke-dashoffset:0;stroke-opacity:1;marker:none;marker-start:none;marker-mid:none;marker-end:none;paint-order:normal;enable-background:new"/><rect id="rect15461-2" width="80" height="2" x="24" y="248" rx="0" ry="0" style="display:inline;opacity:1;vector-effect:none;fill:#1c71d8;fill-opacity:1;stroke:none;stroke-width:.01190936px;stroke-linecap:butt;stroke-linejoin:miter;stroke-miterlimit:4;stroke-dasharray:none;stroke-dashoffset:0;stroke-opacity:1;marker:none;marker-start:none;marker-mid:none;marker-end:none;paint-order:normal;enable-background:new"/><g id="g1088"><path style="opacity:1;vector-effect:none;fill:url(#linearGradient1348);fill-opacity:1;stroke:none;stroke-width:.01184966px;stroke-linecap:butt;stroke-linejoin:miter;stroke-miterlimit:4;stroke-dasharray:none;stroke-dashoffset:0;stroke-opacity:1;marker:none;marker-start:none;marker-mid:none;marker-end:none;paint-order:normal" id="path26035" d="m 55,196 h 18 c 1.662,0 3,1 3,3 v 5 H 72.03125 L 72,200 H 56 l 0.03125,4 H 52 v -5 c 0,-1.662 1.338,-3 3,-3 z"/><rect id="rect1059" width="24" height="4" x="52" y="202" rx="1.5" ry="1.5" style="opacity:.1;fill:#000;fill-opacity:1;stroke:none;stroke-width:4;stroke-linecap:butt;stroke-linejoin:miter;stroke-miterlimit:4;stroke-dasharray:none;stroke-dashoffset:0;stroke-opacity:1"/><path id="rect1061" d="m 55,200 c -1.662,0 -3,1.338 -3,3 v 1 h 4 v -2 h 16 v 2 h 4 v -1 c 0,-1.662 -1.338,-3 -3,-3 z" style="opacity:1;fill:url(#linearGradient1350);fill-opacity:1;stroke:none;stroke-width:4;stroke-linecap:butt;stroke-linejoin:miter;stroke-miterlimit:4;stroke-dasharray:none;stroke-dashoffset:0;stroke-opacity:1"/><rect style="opacity:.1;fill:#000;fill-opacity:1;stroke:none;stroke-width:4;stroke-linecap:butt;stroke-linejoin:miter;stroke-miterlimit:4;stroke-dasharray:none;stroke-dashoffset:0;stroke-opacity:1" id="rect1189" width="16" height="2" x="56" y="202"/></g><use id="use1090" width="100%" height="100%" x="0" y="0" transform="translate(0,32)" xlink:href="#g1088"/><use id="use1092" width="100%" height="100%" x="0" y="0" transform="translate(0,64)" xlink:href="#g1088"/></g><path style="color:#000;display:inline;overflow:visible;visibility:visible;fill:#241f31;fill-opacity:1;fill-rule:evenodd;stroke:none;stroke-width:1;marker:none;enable-background:accumulate" id="path7449" d="m 243.27754,172 c -1.20512,0 -2.1875,1.01795 -2.1875,2.21875 v 11.5625 c 0,1.2008 0.98238,2.21875 2.1875,2.21875 h 9.625 c 1.20512,0 2.1875,-1.01795 2.1875,-2.21875 v -11.5625 c 0,-1.2008 -0.98238,-2.21875 -2.1875,-2.21875 z m -0.1875,3 h 10 v 11 h -10 z m 1,1 v 4 h 8.03125 v -4 z m 2.34375,1.4375 a 0.50004997,0.50004997 0 0 1 0.0625,0 0.50004997,0.50004997 0 0 1 0.59375,0.5 V 178 h 2 v -0.0625 a 0.50004997,0.50004997 0 1 1 1,0 V 178 c 0,0.54535 -0.45465,1 -1,1 h -2 c -0.54535,0 -1,-0.45465 -1,-1 v -0.0625 a 0.50004997,0.50004997 0 0 1 0.34375,-0.5 z M 244.12129,181 v 4 h 8.03125 v -4 z m 2.3125,1.4375 a 0.50004997,0.50004997 0 0 1 0.0625,0 0.50004997,0.50004997 0 0 1 0.59375,0.5 V 183 h 2 v -0.0625 a 0.50004997,0.50004997 0 1 1 1,0 V 183 c 0,0.54535 -0.45465,1 -1,1 h -2 c -0.54535,0 -1,-0.45465 -1,-1 v -0.0625 a 0.50004997,0.50004997 0 0 1 0.34375,-0.5 z"/><path style="display:inline;opacity:1;vector-effect:none;fill:#241f31;fill-opacity:1;stroke:none;stroke-width:.67806941;stroke-linecap:butt;stroke-linejoin:round;stroke-miterlimit:4;stroke-dasharray:none;stroke-dashoffset:0;stroke-opacity:1;marker:none;marker-start:none;marker-mid:none;marker-end:none;paint-order:normal;enable-background:new" id="rect7451" d="m 222.65254,173 c -0.82843,0 -1.5,0.67157 -1.5,1.5 v 5.5 5.5 c 0,0.82843 0.67157,1.5 1.5,1.5 h 1.5 v -1 h -0.0879 c -0.5463,-0.002 -0.91211,-0.4489 -0.91211,-1 v -5 -5 c 0,-0.5511 0.36581,-0.99832 0.91211,-1 h 0.0879 v -1 z"/><rect id="rect7457" width="2" height="12" x="-266.153" y="174" transform="scale(-1,1)" style="display:inline;opacity:1;vector-effect:none;fill:#241f31;fill-opacity:1;stroke:none;stroke-width:1.00157487;stroke-linecap:butt;stroke-linejoin:round;stroke-miterlimit:4;stroke-dasharray:none;stroke-dashoffset:0;stroke-opacity:1;marker:none;marker-start:none;marker-mid:none;marker-end:none;paint-order:normal;enable-background:new"/><rect id="rect7459" width="2" height="1" x="-265.153" y="186" transform="scale(-1,1)" style="display:inline;opacity:1;vector-effect:none;fill:#241f31;fill-opacity:1;stroke:none;stroke-width:1.00157487;stroke-linecap:butt;stroke-linejoin:round;stroke-miterlimit:4;stroke-dasharray:none;stroke-dashoffset:0;stroke-opacity:1;marker:none;marker-start:none;marker-mid:none;marker-end:none;paint-order:normal;enable-background:new"/><rect style="display:inline;opacity:1;vector-effect:none;fill:#241f31;fill-opacity:1;stroke:none;stroke-width:1.00157487;stroke-linecap:butt;stroke-linejoin:round;stroke-miterlimit:4;stroke-dasharray:none;stroke-dashoffset:0;stroke-opacity:1;marker:none;marker-start:none;marker-mid:none;marker-end:none;paint-order:normal;enable-background:new" id="rect7461" width="2" height="1" x="-265.153" y="173" transform="scale(-1,1)"/><rect style="display:inline;opacity:1;vector-effect:none;fill:#241f31;fill-opacity:1;stroke:none;stroke-width:1.41644073;stroke-linecap:butt;stroke-linejoin:round;stroke-miterlimit:4;stroke-dasharray:none;stroke-dashoffset:0;stroke-opacity:1;marker:none;marker-start:none;marker-mid:none;marker-end:none;paint-order:normal;enable-background:new" id="rect7463" width="4" height="2" x="226.153" y="175"/><rect id="rect7465" width="4" height="2" x="226.153" y="179" style="display:inline;opacity:1;vector-effect:none;fill:#241f31;fill-opacity:1;stroke:none;stroke-width:1.41644073;stroke-linecap:butt;stroke-linejoin:round;stroke-miterlimit:4;stroke-dasharray:none;stroke-dashoffset:0;stroke-opacity:1;marker:none;marker-start:none;marker-mid:none;marker-end:none;paint-order:normal;enable-background:new"/><rect style="display:inline;opacity:1;vector-effect:none;fill:#241f31;fill-opacity:1;stroke:none;stroke-width:1.41644073;stroke-linecap:butt;stroke-linejoin:round;stroke-miterlimit:4;stroke-dasharray:none;stroke-dashoffset:0;stroke-opacity:1;marker:none;marker-start:none;marker-mid:none;marker-end:none;paint-order:normal;enable-background:new" id="rect7467" width="4" height="2" x="226.153" y="183"/><circle style="display:inline;opacity:1;vector-effect:none;fill:#241f31;fill-opacity:1;stroke:none;stroke-width:1.00157487;stroke-linecap:butt;stroke-linejoin:round;stroke-miterlimit:4;stroke-dasharray:none;stroke-dashoffset:0;stroke-opacity:1;marker:none;marker-start:none;marker-mid:none;marker-end:none;paint-order:normal;enable-background:new" id="circle7473" cx="265.153" cy="186" r="1"/><circle id="circle7475" cx="265.153" cy="174" r="1" style="display:inline;opacity:1;vector-effect:none;fill:#241f31;fill-opacity:1;stroke:none;stroke-width:1.00157487;stroke-linecap:butt;stroke-linejoin:round;stroke-miterlimit:4;stroke-dasharray:none;stroke-dashoffset:0;stroke-opacity:1;marker:none;marker-start:none;marker-mid:none;marker-end:none;paint-order:normal;enable-background:new"/><path id="path7484" d="m 233.65254,173 c 0.82843,0 1.5,0.67157 1.5,1.5 v 5.5 5.5 c 0,0.82843 -0.67157,1.5 -1.5,1.5 h -1.5 v -1 h 0.0879 c 0.5463,-0.002 0.91211,-0.4489 0.91211,-1 v -5 -5 c 0,-0.5511 -0.36581,-0.99832 -0.91211,-1 h -0.0879 v -1 z" style="display:inline;opacity:1;vector-effect:none;fill:#241f31;fill-opacity:1;stroke:none;stroke-width:.67806941;stroke-linecap:butt;stroke-linejoin:round;stroke-miterlimit:4;stroke-dasharray:none;stroke-dashoffset:0;stroke-opacity:1;marker:none;marker-start:none;marker-mid:none;marker-end:none;paint-order:normal;enable-background:new"/><path style="color:#000;display:inline;overflow:visible;visibility:visible;fill:#241f31;fill-opacity:1;fill-rule:evenodd;stroke:none;stroke-width:1;marker:none;enable-background:accumulate" id="path7486" d="M 163.1875,172 C 161.98238,172 161,172.7992 161,174 v 12 c 0,1.2008 0.98238,2 2.1875,2 h 9.625 c 1.20512,0 2.1875,-1.01795 2.1875,-2.21875 v -11.5625 C 175,173.01795 174.01762,172 172.8125,172 Z M 163,173 h 10 v 13 h -10 z m 1,1 v 5 h 8.03125 v -5 z m 3,2 h 2 c 0.54535,0 1,0.45465 1,1 h -1 -2 -1 c 0,-0.54535 0.45465,-1 1,-1 z m -2.96875,4 v 5 h 8.03125 v -5 z M 167,182 h 2 c 0.54535,0 1,0.45465 1,1 h -1 -2 -1 c 0,-0.54535 0.45465,-1 1,-1 z"/></g><g id="layer3" style="display:none"><circle id="circle2892" cx="64" cy="236" r="59.504" style="display:inline;opacity:.1;vector-effect:none;fill:none;fill-opacity:1;stroke:#000;stroke-width:.99000001;stroke-linecap:butt;stroke-linejoin:miter;stroke-miterlimit:4;stroke-dasharray:.99000001,.99000001;stroke-dashoffset:0;stroke-opacity:1;marker:none;marker-start:none;marker-mid:none;marker-end:none;paint-order:normal;enable-background:new"/><rect id="rect2894" width="87.01" height="111.01" x="20.495" y="180.495" rx="8.701" ry="7.929" style="display:inline;opacity:.1;vector-effect:none;fill:none;fill-opacity:1;stroke:#000;stroke-width:.99000001;stroke-linecap:butt;stroke-linejoin:miter;stroke-miterlimit:4;stroke-dasharray:.99000001,.99000001;stroke-dashoffset:0;stroke-opacity:1;marker:none;marker-start:none;marker-mid:none;marker-end:none;paint-order:normal;enable-background:new"/><rect id="rect2896" width="103.01" height="103.01" x="12.495" y="184.495" rx="7.924" ry="7.924" style="display:inline;opacity:.1;vector-effect:none;fill:none;fill-opacity:1;stroke:#000;stroke-width:.99000001;stroke-linecap:butt;stroke-linejoin:miter;stroke-miterlimit:4;stroke-dasharray:.99000001,.99000001;stroke-dashoffset:0;stroke-opacity:1;marker:none;marker-start:none;marker-mid:none;marker-end:none;paint-order:normal;enable-background:new"/><rect id="rect2898" width="111.01" height="87.01" x="8.495" y="200.495" rx="7.929" ry="8.701" style="display:inline;opacity:.1;vector-effect:none;fill:none;fill-opacity:1;stroke:#000;stroke-width:.99000001;stroke-linecap:butt;stroke-linejoin:miter;stroke-miterlimit:4;stroke-dasharray:.99000001,.99000001;stroke-dashoffset:0;stroke-opacity:1;marker:none;marker-start:none;marker-mid:none;marker-end:none;paint-order:normal;enable-background:new"/><path id="path2900" d="M 2.6203015e-5,288.99999 H 128.00003" style="display:inline;fill:none;stroke:#62a0ea;stroke-width:2;stroke-linecap:butt;stroke-linejoin:miter;stroke-miterlimit:4;stroke-dasharray:none;stroke-opacity:1;enable-background:new"/></g></g></svg>